<?xml version="1.0" encoding="utf-8"?>
<!-- Generator: Adobe Illustrator 27.5.0, SVG Export Plug-In . SVG Version: 6.00 Build 0)  -->
<svg version="1.1" xmlns="http://www.w3.org/2000/svg" xmlns:xlink="http://www.w3.org/1999/xlink" x="0px" y="0px"
	 viewBox="0 0 500 500" style="enable-background:new 0 0 500 500;" xml:space="preserve">
<g id="Shadows_1_">
	<ellipse id="Shadow" style="fill:#F5F5F5;" cx="250" cy="412.46" rx="193.89" ry="11.32"/>
</g>
<g id="Background_Complete">
	<g>
		<path style="fill:#F0F0F0;" d="M238.395,359.53H45.305c-3.15-0.005-5.7-2.56-5.7-5.71V82.39c0.027-3.13,2.57-5.655,5.7-5.66
			h193.09c3.153,0,5.71,2.556,5.71,5.71l0,0v271.38C244.105,356.974,241.548,359.53,238.395,359.53z M45.305,76.93
			c-3.012,0.006-5.45,2.448-5.45,5.46v271.43c0,3.012,2.438,5.454,5.45,5.46h193.09c3.013-0.005,5.454-2.447,5.46-5.46V82.39
			c-0.006-3.013-2.447-5.455-5.46-5.46H45.305z"/>
		<path style="fill:#F0F0F0;" d="M454.705,359.53h-193.1c-3.151-0.005-5.705-2.559-5.71-5.71V82.39
			c0.033-3.132,2.578-5.655,5.71-5.66h193.1c3.126,0.011,5.663,2.534,5.69,5.66v271.43
			C460.395,356.966,457.851,359.519,454.705,359.53z M261.605,76.93c-3.013,0.006-5.455,2.447-5.46,5.46v271.43
			c0.005,3.013,2.447,5.454,5.46,5.46h193.1c3.013-0.005,5.454-2.447,5.46-5.46V82.39c-0.006-3.013-2.447-5.455-5.46-5.46H261.605z"
			/>
	</g>
	<g>
		<g>
			<rect x="53.79" y="410.21" style="fill:#E0E0E0;" width="41.21" height="0.25"/>
			<rect x="222.78" y="408.21" style="fill:#E0E0E0;" width="10" height="0.25"/>
			<rect x="86.58" y="416.75" style="fill:#E0E0E0;" width="46.25" height="0.25"/>
			<rect x="301.7" y="410.08" style="fill:#E0E0E0;" width="27.93" height="0.25"/>
			<rect x="411.482" y="410.08" style="fill:#E0E0E0;" width="27.93" height="0.25"/>
		</g>
		<g>
			<rect x="136.719" y="382.547" style="fill:#E0E0E0;" width="41.33" height="0.25"/>
			<rect x="85.629" y="391.087" style="fill:#E0E0E0;" width="46.25" height="0.25"/>
			<rect x="270.249" y="384.417" style="fill:#E0E0E0;" width="21.6" height="0.25"/>
			<rect x="300.749" y="384.417" style="fill:#E0E0E0;" width="27.93" height="0.25"/>
			<rect x="400.94" y="388.647" style="fill:#E0E0E0;" width="62.44" height="0.25"/>
		</g>
	</g>
	<g>
		<rect x="47.796" y="241.65" style="fill:#E6E6E6;" width="31.31" height="33.33"/>
		<rect x="39.776" y="241.65" style="fill:#F0F0F0;" width="8.02" height="33.33"/>
		<rect x="63.796" y="236.51" style="fill:#E6E6E6;" width="23.52" height="38.47"/>
		<rect x="57.006" y="236.51" style="fill:#F0F0F0;" width="6.8" height="38.47"/>
		<rect x="70.726" y="241.65" style="fill:#F0F0F0;" width="19.83" height="33.33"/>
		<rect x="66.196" y="241.65" style="fill:#F5F5F5;" width="4.53" height="33.33"/>
		<rect x="86.956" y="247.29" style="fill:#E6E6E6;" width="26.01" height="27.69"/>
		<rect x="80.296" y="247.29" style="fill:#F5F5F5;" width="6.66" height="27.69"/>
		<rect x="100.246" y="243.02" style="fill:#E6E6E6;" width="19.54" height="31.96"/>
		<rect x="94.606" y="243.02" style="fill:#F0F0F0;" width="5.65" height="31.96"/>
		<rect x="106.006" y="247.29" style="fill:#F0F0F0;" width="18.98" height="27.69"/>
		<rect x="102.236" y="247.29" style="fill:#F5F5F5;" width="3.76" height="27.69"/>
	</g>
	<g>
		<rect x="166.608" y="241.828" style="fill:#E6E6E6;" width="31.31" height="33.33"/>
		<rect x="158.588" y="241.828" style="fill:#F0F0F0;" width="8.02" height="33.33"/>
		<rect x="182.608" y="236.688" style="fill:#E6E6E6;" width="23.52" height="38.47"/>
		<rect x="175.818" y="236.688" style="fill:#F0F0F0;" width="6.8" height="38.47"/>
		<rect x="189.538" y="241.828" style="fill:#F0F0F0;" width="19.83" height="33.33"/>
		<rect x="185.008" y="241.828" style="fill:#F5F5F5;" width="4.53" height="33.33"/>
		<rect x="39.855" y="275.14" style="fill:#E0E0E0;" width="204" height="9.646"/>
		<rect x="205.768" y="247.468" style="fill:#E6E6E6;" width="26.01" height="27.69"/>
		<rect x="199.108" y="247.468" style="fill:#F5F5F5;" width="6.66" height="27.69"/>
		<rect x="219.058" y="243.198" style="fill:#E6E6E6;" width="19.54" height="31.96"/>
		<rect x="213.418" y="243.198" style="fill:#F0F0F0;" width="5.65" height="31.96"/>
		<rect x="224.818" y="247.468" style="fill:#F0F0F0;" width="18.98" height="27.69"/>
		<rect x="221.048" y="247.468" style="fill:#F5F5F5;" width="3.76" height="27.69"/>
	</g>
	<g>
		<g>
			<rect x="40.168" y="101.88" style="fill:#EBEBEB;" width="163.832" height="99.83"/>
			<g>
				<g>
					<rect x="204.018" y="101.84" style="fill:#E0E0E0;" width="1.2" height="99.83"/>
				</g>
				<rect x="45.129" y="106.216" style="fill:#E0E0E0;" width="0.99" height="89.83"/>
			</g>
		</g>
		<rect x="45.03" y="106.216" style="fill:#FFFFFF;" width="153.633" height="89.83"/>
		<rect x="136.371" y="136.152" style="fill:#F5F5F5;" width="12.66" height="18.185"/>
		<rect x="52.43" y="164.963" style="fill:#F5F5F5;" width="12.66" height="18.185"/>
		<rect x="51.196" y="127.04" style="fill:#F5F5F5;" width="12.66" height="12.66"/>
		<rect x="114.173" y="170.76" style="fill:#F5F5F5;" width="12.66" height="12.66"/>
		<g>
			<rect x="156.59" y="137.718" style="fill:#F5F5F5;" width="32.42" height="45.56"/>
			<g>
				<rect x="161.029" y="144.314" style="fill:#E0E0E0;" width="23.287" height="0.5"/>
			</g>
			<g>
				<rect x="172.423" y="144.802" style="fill:#E0E0E0;" width="0.5" height="33.743"/>
			</g>
			<g>
				<rect x="183.116" y="144.802" style="fill:#E0E0E0;" width="0.5" height="33.743"/>
			</g>
			<g>
				<rect x="162.918" y="144.802" style="fill:#E0E0E0;" width="0.5" height="33.743"/>
			</g>
			<g>
				<rect x="161.255" y="144.802" style="fill:#E0E0E0;" width="0.5" height="33.743"/>
			</g>
			<g>
				<rect x="161.505" y="146.581" style="fill:#E0E0E0;" width="21.624" height="0.5"/>
			</g>
		</g>
		<g>
			
				<rect x="106.693" y="121.119" transform="matrix(6.123234e-17 -1 1 6.123234e-17 -17.2772 234.9406)" style="fill:#F5F5F5;" width="4.277" height="9.98"/>
			
				<rect x="109.119" y="152.852" transform="matrix(6.123234e-17 -1 1 6.123234e-17 -47.0594 268.6238)" style="fill:#F5F5F5;" width="3.327" height="9.98"/>
			<rect x="74.992" y="122.567" style="fill:#F0F0F0;" width="32.42" height="45.56"/>
			
				<rect x="106.881" y="160.218" transform="matrix(6.123234e-17 -1 1 6.123234e-17 -56.6635 273.7524)" style="fill:#F5F5F5;" width="3.327" height="9.98"/>
			
				<rect x="108.545" y="129.762" transform="matrix(6.123234e-17 -1 1 6.123234e-17 -24.5446 244.9603)" style="fill:#F5F5F5;" width="3.327" height="9.98"/>
			
				<rect x="106.356" y="138.03" transform="matrix(6.123234e-17 -1 1 6.123234e-17 -35 251.0396)" style="fill:#F5F5F5;" width="3.327" height="9.98"/>
			<rect x="78.812" y="128.168" style="fill:#E6E6E6;" width="22.099" height="3.921"/>
			<polygon style="fill:#E6E6E6;" points="101.267,144.921 79.168,144.921 78.812,143.139 100.911,143.139 			"/>
			<rect x="78.812" y="136.01" style="fill:#E6E6E6;" width="7.842" height="3.921"/>
		</g>
	</g>
	<g>
		<g>
			<path style="fill:#E6E6E6;" d="M273.194,303.215c3.022,1.156,5.735,2.998,8.299,4.976c1.407,1.085,2.817,2.264,3.622,3.85
				c0.805,1.586,0.855,3.685-0.332,5.002c-1.409,1.563-4.005,1.435-5.808,0.345c-1.803-1.09-3.033-2.895-4.318-4.567
				c-1.941-2.525-9.635-7.814-9.846-10.482C267.472,301.548,270.643,302.238,273.194,303.215z"/>
			<path style="fill:#E0E0E0;" d="M272.862,317.009c0.299,2.03,1.072,4.124,2.73,5.334c1.657,1.21,4.349,1.116,5.46-0.609
				c1.107-1.718,0.232-3.992-0.803-5.754c-1.783-3.034-4.08-6.241-6.891-8.375C272.876,310.874,272.363,313.629,272.862,317.009z"/>
			<path style="fill:#E6E6E6;" d="M265.918,305.514c0.248,2.56-0.478,5.102-1.169,7.578c-0.692,2.477-1.362,5.045-1.003,7.591
				c0.327,2.317,2.145,4.817,4.444,4.427c1.587-0.269,2.635-1.794,3.289-3.27c1.927-4.35,3.439-10.134,1.671-14.55
				c-1.668-4.166-6.886-7.967-11.319-9.125C262.821,300.947,265.594,302.17,265.918,305.514z"/>
			<path style="fill:#F0F0F0;" d="M252.166,301.667c-3.193,3.542-4.674,8.571-3.913,13.285c-3.408-0.947-7.289,0.08-9.789,2.591
				c-2.5,2.511-3.521,6.407-2.575,9.826c1.626,0.852,3.599-0.576,4.387-2.238c0.788-1.663,0.932-3.596,1.856-5.188
				c0.924-1.591,3.215-2.676,4.58-1.446c0.714,7.833-0.359,18.85,0.355,26.684c0.103-0.507,6.154-0.467,6.128-0.605
				c-0.744-3.915-1.772-18.84,0.158-18.382c1.531,0.363,1.85,2.409,1.654,3.976c-0.194,1.555-0.468,3.411,0.69,4.448
				c1.221,1.093,3.01,0.648,3.899-0.729c1.3-2.012,0.549-4.336-0.314-6.366c-0.777-1.828-1.784-3.747-3.583-4.578
				c-1.799-0.83-4.479,0.21-4.497,2.197c-1.02-4.93-2.033-10.105-0.593-14.93c1.44-4.824,6.22-9.047,11.129-8.011
				c2.415,0.51,5.985,2.57,7.738-0.27c1.246-2.019,0.066-3.391-1.686-4.396C262.807,294.676,255.588,297.87,252.166,301.667z"/>
			<path style="fill:#F0F0F0;" d="M260.554,302.273c-0.431,2.352-0.3,4.937,0.802,6.942c0.996,1.813,3.127,3.004,4.729,1.901
				c1.256-0.865,1.701-2.757,1.727-4.458C267.909,300.237,262.475,291.791,260.554,302.273z"/>
			<path style="fill:#F0F0F0;" d="M269.339,296.104c3.793,1.17,7.004,4.11,8.512,7.794c0.456,1.113,0.736,2.471,0.049,3.457
				c-0.858,1.232-2.714,1.178-4.114,0.644c-2.942-1.122-5.087-3.632-7.387-5.788c-1.533-1.438-6.74-3.123-5.603-5.391
				C261.932,294.553,267.52,295.543,269.339,296.104z"/>
		</g>
		<polygon style="fill:#E6E6E6;" points="260.982,375.089 240.251,375.089 229.39,335.17 271.843,335.17 		"/>
		<g>
			<rect x="238.721" y="369.153" style="fill:#FFFFFF;" width="23.656" height="0.889"/>
		</g>
	</g>
	<g>
		<polygon style="fill:#EBEBEB;" points="147.344,361.423 147.994,373.871 187.079,373.871 172.875,361.423 		"/>
		<polygon style="fill:#E6E6E6;" points="157.376,366.87 158.327,380.287 197.653,380.168 186.198,366.87 		"/>
		<path style="fill:#EBEBEB;" d="M158.704,354.171l-8.953,7.098c0,0,28.969,5.261,28.344,5.189
			c-0.625-0.072-1.014-9.608-1.014-9.608L158.704,354.171z"/>
		<path style="fill:#F0F0F0;" d="M170.487,361.541l-2.229,7.331c0,0,27.821,0,27.365,0c-0.456,0-5.458-7.172-5.458-7.172
			L170.487,361.541z"/>
		<path style="fill:#F5F5F5;" d="M169.561,352.089l-3.795,6.657c0,0,27.133,6.151,26.688,6.05c-0.445-0.101-3.738-8.201-3.738-8.201
			L169.561,352.089z"/>
		<path style="fill:#FAFAFA;" d="M167.119,356.287l-13.901,6.416c0,0,15.106,8.126,21.505,7.544
			c3.921-0.356,9.208-9.861,9.208-9.861L167.119,356.287z"/>
	</g>
</g>
<g id="Background_Simple_1_" style="display:none;">
	<g style="display:inline;">
		<path style="fill:#407BFF;" d="M295.339,104.522c-18.142,5.716-34.007,18.357-43.631,34.763
			c-6.254,10.66-9.878,22.656-15.595,33.614c-15.959,30.587-49.093,51.449-83.573,52.619c-17.889,0.607-36.162-3.652-53.501,0.796
			c-22.177,5.689-39.527,26.647-40.975,49.496c-1.448,22.849,13.117,45.83,34.399,54.273c25.134,9.972,56.386,1.031,78.569,16.493
			c10.533,7.342,17.33,19.782,17.819,32.612c0.455,11.941-3.064,26.771,6.717,33.636c3.665,2.573,8.347,3.126,12.82,3.351
			c32.477,1.636,64.838-10.144,90.995-29.463c26.157-19.319,46.432-45.804,61.703-74.513
			c16.813-31.605,27.992-66.884,27.263-102.676c-0.664-32.609-12.28-59.416-30.462-85.781c-5.233-7.587-8.456-15.59-17.34-19.435
			C327.169,98.518,308.834,100.27,295.339,104.522z"/>
		<path style="opacity:0.9;fill:#FFFFFF;" d="M295.339,104.522c-18.142,5.716-34.007,18.357-43.631,34.763
			c-6.254,10.66-9.878,22.656-15.595,33.614c-15.959,30.587-49.093,51.449-83.573,52.619c-17.889,0.607-36.162-3.652-53.501,0.796
			c-22.177,5.689-39.527,26.647-40.975,49.496c-1.448,22.849,13.117,45.83,34.399,54.273c25.134,9.972,56.386,1.031,78.569,16.493
			c10.533,7.342,17.33,19.782,17.819,32.612c0.455,11.941-3.064,26.771,6.717,33.636c3.665,2.573,8.347,3.126,12.82,3.351
			c32.477,1.636,64.838-10.144,90.995-29.463c26.157-19.319,46.432-45.804,61.703-74.513
			c16.813-31.605,27.992-66.884,27.263-102.676c-0.664-32.609-12.28-59.416-30.462-85.781c-5.233-7.587-8.456-15.59-17.34-19.435
			C327.169,98.518,308.834,100.27,295.339,104.522z"/>
	</g>
</g>
<g id="Paper_flying">
	<g>
		<g>
			<path style="fill:#407BFF;" d="M226.425,177.402c-4.609-3.179-8.348-8.112-8.696-13.7c-9.284-0.649-18.43-3.224-26.689-7.515
				l-0.333,0.395c0.609,5.105,1.229,10.258,2.926,15.111c1.697,4.853,4.585,9.45,8.882,12.273c5.236,3.439,11.842,3.862,18.106,3.94
				c7.28,0.09,14.928-0.242,21.196-3.947C236.472,182.292,231.035,180.581,226.425,177.402z"/>
			<path style="opacity:0.7;fill:#FFFFFF;" d="M226.425,177.402c-4.609-3.179-8.348-8.112-8.696-13.7
				c-9.284-0.649-18.43-3.224-26.689-7.515l-0.333,0.395c0.609,5.105,1.229,10.258,2.926,15.111
				c1.697,4.853,4.585,9.45,8.882,12.273c5.236,3.439,11.842,3.862,18.106,3.94c7.28,0.09,14.928-0.242,21.196-3.947
				C236.472,182.292,231.035,180.581,226.425,177.402z"/>
		</g>
		<g>
			<path style="fill:#407BFF;" d="M286.83,195.513c0.037-5.552-1.388-11.307-5.028-15.499c-2.942-3.389-7.054-5.49-10.648-8.177
				c-5.053-3.779-9.152-8.823-11.818-14.542l0.507,2.361c6.513,12.413,8.337,27.217,5.032,40.84
				c6.637,3.375,13.052,7.186,19.191,11.4C285.425,206.512,286.792,201.065,286.83,195.513z"/>
			<path style="opacity:0.7;fill:#FFFFFF;" d="M286.83,195.513c0.037-5.552-1.388-11.307-5.028-15.499
				c-2.942-3.389-7.054-5.49-10.648-8.177c-5.053-3.779-9.152-8.823-11.818-14.542l0.507,2.361
				c6.513,12.413,8.337,27.217,5.032,40.84c6.637,3.375,13.052,7.186,19.191,11.4C285.425,206.512,286.792,201.065,286.83,195.513z"
				/>
		</g>
		<g>
			<path style="fill:#407BFF;" d="M190.062,385.477c5.02,1.676,10.04,3.352,15.06,5.028c1.351,0.451,2.72,0.906,4.142,0.994
				c2.845,0.176,5.566-1.127,8.002-2.606c6.063-3.683,11.319-8.688,15.293-14.564c-4.576-0.748-9.152-1.496-13.727-2.243
				c-1.569-0.256-4.898-1.488-6.381-1.011c-1.294,0.416-2.519,2.576-3.495,3.549c-2.601,2.593-5.55,4.841-8.734,6.671
				C198.238,382.435,192.404,386.147,190.062,385.477z"/>
			<path style="opacity:0.6;fill:#FFFFFF;" d="M190.062,385.477c5.02,1.676,10.04,3.352,15.06,5.028
				c1.351,0.451,2.72,0.906,4.142,0.994c2.845,0.176,5.566-1.127,8.002-2.606c6.063-3.683,11.319-8.688,15.293-14.564
				c-4.576-0.748-9.152-1.496-13.727-2.243c-1.569-0.256-4.898-1.488-6.381-1.011c-1.294,0.416-2.519,2.576-3.495,3.549
				c-2.601,2.593-5.55,4.841-8.734,6.671C198.238,382.435,192.404,386.147,190.062,385.477z"/>
		</g>
		<g>
			<path style="fill:#407BFF;" d="M236.61,380.119c3,4.36,6.001,8.72,9.001,13.08c0.807,1.173,1.627,2.361,2.709,3.286
				c2.166,1.853,5.123,2.45,7.959,2.735c7.059,0.709,14.268-0.125,20.979-2.426c-3.204-3.351-6.408-6.703-9.612-10.054
				c-1.098-1.149-3.016-4.136-4.487-4.647c-1.284-0.446-3.561,0.541-4.927,0.731c-3.638,0.506-7.346,0.525-10.99,0.071
				C244.971,382.612,238.077,382.065,236.61,380.119z"/>
			<path style="opacity:0.6;fill:#FFFFFF;" d="M236.61,380.119c3,4.36,6.001,8.72,9.001,13.08c0.807,1.173,1.627,2.361,2.709,3.286
				c2.166,1.853,5.123,2.45,7.959,2.735c7.059,0.709,14.268-0.125,20.979-2.426c-3.204-3.351-6.408-6.703-9.612-10.054
				c-1.098-1.149-3.016-4.136-4.487-4.647c-1.284-0.446-3.561,0.541-4.927,0.731c-3.638,0.506-7.346,0.525-10.99,0.071
				C244.971,382.612,238.077,382.065,236.61,380.119z"/>
		</g>
		<g>
			<path style="fill:#407BFF;" d="M252.283,390.267c-4.55-2.703-9.1-5.406-13.65-8.11c-1.224-0.727-2.466-1.462-3.836-1.85
				c-2.743-0.776-5.678-0.08-8.373,0.849c-6.707,2.312-12.905,6.087-18.036,10.986c4.313,1.702,8.626,3.404,12.939,5.106
				c1.479,0.583,4.47,2.493,6.021,2.342c1.353-0.132,3.008-1.982,4.168-2.726c3.092-1.982,6.451-3.552,9.951-4.666
				C243.646,391.504,250.136,389.115,252.283,390.267z"/>
			<path style="opacity:0.7;fill:#FFFFFF;" d="M252.283,390.267c-4.55-2.703-9.1-5.406-13.65-8.11
				c-1.224-0.727-2.466-1.462-3.836-1.85c-2.743-0.776-5.678-0.08-8.373,0.849c-6.707,2.312-12.905,6.087-18.036,10.986
				c4.313,1.702,8.626,3.404,12.939,5.106c1.479,0.583,4.47,2.493,6.021,2.342c1.353-0.132,3.008-1.982,4.168-2.726
				c3.092-1.982,6.451-3.552,9.951-4.666C243.646,391.504,250.136,389.115,252.283,390.267z"/>
		</g>
		<g>
			<path style="fill:#407BFF;" d="M130.245,200.382c12.573,1.731,25.393,1.656,37.945-0.22c0.73-0.109,1.552-0.284,1.934-0.915
				c0.572-0.945-0.23-2.092-0.893-2.976c-2.408-3.216-3.371-7.473-2.583-11.413c-9.288,8.494-21.304,13.958-33.81,15.374
				L130.245,200.382z"/>
			<path style="opacity:0.4;fill:#FFFFFF;" d="M130.245,200.382c12.573,1.731,25.393,1.656,37.945-0.22
				c0.73-0.109,1.552-0.284,1.934-0.915c0.572-0.945-0.23-2.092-0.893-2.976c-2.408-3.216-3.371-7.473-2.583-11.413
				c-9.288,8.494-21.304,13.958-33.81,15.374L130.245,200.382z"/>
		</g>
	</g>
</g>
<g id="table_and_seat">
	<g>
		<path style="fill:#407BFF;" d="M55.089,303.297L55.089,303.297v-49.888l0,0c8.671,0,15.701,7.029,15.701,15.701v18.486
			C70.79,296.267,63.76,303.297,55.089,303.297z"/>
		<g>
			<path style="fill:#263238;" d="M102.861,360.78H65.189c-8.394,0-13.017-6.043-13.017-17.017l-0.17-74.682l3-0.006l0.17,74.685
				c0,9.304,3.37,14.02,10.017,14.02h37.672V360.78z"/>
		</g>
		<path style="fill:#407BFF;" d="M126.899,358.28H73.101c-7.979,0-14.447-4.563-14.447-10.193v0c0-5.629,6.468-10.193,14.447-10.193
			h26.761h27.038c7.979,0,14.447,4.563,14.447,10.193v0C141.346,353.717,134.878,358.28,126.899,358.28z"/>
		<path style="fill:#407BFF;" d="M55.089,303.297L55.089,303.297v-49.888l0,0c8.671,0,15.701,7.029,15.701,15.701v18.486
			C70.79,296.267,63.76,303.297,55.089,303.297z"/>
		<path style="fill:#407BFF;" d="M126.899,358.28H73.101c-7.979,0-14.447-4.563-14.447-10.193v0c0-5.629,6.468-10.193,14.447-10.193
			h26.761h27.038c7.979,0,14.447,4.563,14.447,10.193v0C141.346,353.717,134.878,358.28,126.899,358.28z"/>
		<rect x="94.421" y="359.28" style="fill:#263238;" width="8.605" height="30.749"/>
		<polygon style="fill:#263238;" points="63.343,399.772 94.421,390.03 103.026,390.03 136.293,399.772 136.293,402.624 
			63.343,402.624 		"/>
		<g>
			<rect x="63.343" y="402.624" style="fill:#263238;" width="6.891" height="6.891"/>
			<circle style="fill:#263238;" cx="66.95" cy="415.481" r="5.271"/>
		</g>
		<g>
			<rect x="129.165" y="402.624" style="fill:#263238;" width="6.891" height="6.891"/>
			<circle style="fill:#263238;" cx="132.772" cy="415.481" r="5.271"/>
		</g>
	</g>
	<g>
		<g>
			<polygon style="fill:#263238;" points="107.475,298.307 95.201,298.307 73.581,424.247 79.039,424.247 			"/>
			<polygon style="opacity:0.1;fill:#FFFFFF;" points="107.475,298.307 95.201,298.307 73.581,424.247 79.039,424.247 			"/>
		</g>
		<g>
			<polygon style="fill:#263238;" points="182.109,298.307 194.382,298.307 216.003,424.247 210.545,424.247 			"/>
			<polygon style="opacity:0.1;fill:#FFFFFF;" points="182.109,298.307 194.382,298.307 216.003,424.247 210.545,424.247 			"/>
		</g>
		<g>
			<rect x="89.178" y="288.564" style="fill:#263238;" width="111.921" height="19.247"/>
			<rect x="89.178" y="288.564" style="opacity:0.2;fill:#FFFFFF;" width="111.921" height="19.247"/>
		</g>
		<g>
			<g>
				<path style="fill:#407BFF;" d="M204.257,288.564H84.02c-3.018,0-5.465-2.447-5.465-5.465l0,0c0-3.018,2.447-5.465,5.465-5.465
					h120.238c3.018,0,5.465,2.447,5.465,5.465l0,0C209.723,286.117,207.276,288.564,204.257,288.564z"/>
				<path style="opacity:0.3;" d="M204.257,288.564H84.02c-3.018,0-5.465-2.447-5.465-5.465l0,0c0-3.018,2.447-5.465,5.465-5.465
					h120.238c3.018,0,5.465,2.447,5.465,5.465l0,0C209.723,286.117,207.276,288.564,204.257,288.564z"/>
			</g>
		</g>
	</g>
</g>
<g id="Clock">
	<g>
		<g>
			
				<ellipse transform="matrix(0.1854 -0.9827 0.9827 0.1854 101.4779 330.3648)" style="fill:#407BFF;" cx="250" cy="103.976" rx="20.447" ry="20.447"/>
			<circle style="opacity:0.8;fill:#FFFFFF;" cx="249.752" cy="103.976" r="16.409"/>
		</g>
		<g>
			<g>
				<path style="fill:#407BFF;" d="M251.374,105.337c0,0.919-0.745,1.664-1.664,1.664c-0.919,0-1.664-0.745-1.664-1.664
					c0-0.919,0.745-1.664,1.664-1.664C250.629,103.673,251.374,104.418,251.374,105.337z"/>
			</g>
			<g>
				<polygon style="fill:#407BFF;" points="249.519,105.95 242.459,99.305 243.144,98.576 249.541,104.596 261.006,94.467 
					261.668,95.216 				"/>
			</g>
		</g>
	</g>
</g>
<g id="Paper">
	<g>
		<g>
			<g>
				<g>
					
						<rect x="101.782" y="263.376" transform="matrix(-1 -1.224647e-16 1.224647e-16 -1 258.5149 540.4158)" style="fill:#407BFF;" width="54.951" height="13.663"/>
					
						<rect x="101.96" y="263.436" transform="matrix(-1 -1.224647e-16 1.224647e-16 -1 258.8712 540.5346)" style="opacity:0.6;fill:#FFFFFF;enable-background:new    ;" width="54.951" height="13.663"/>
					
						<rect x="101.782" y="263.436" transform="matrix(-1 -1.224647e-16 1.224647e-16 -1 245.7426 540.5346)" style="opacity:0.6;fill:#FFFFFF;enable-background:new    ;" width="42.178" height="13.663"/>
					<polygon style="fill:#407BFF;enable-background:new    ;" points="102.049,275.302 156.734,276.999 156.673,275.614 
						102.02,274.901 					"/>
					<polygon style="fill:#407BFF;enable-background:new    ;" points="156.734,268.982 102.134,265.912 102.134,266.372 
						156.734,270.022 					"/>
					<polygon style="fill:#407BFF;enable-background:new    ;" points="156.734,264.856 102.134,266.106 102.134,266.556 
						156.734,265.896 					"/>
					<polygon style="fill:#407BFF;enable-background:new    ;" points="156.888,271.666 102.278,274.326 102.278,273.926 
						156.888,270.756 					"/>
				</g>
				<polygon style="fill:#407BFF;enable-background:new    ;" points="101.917,263.555 156.517,263.599 156.517,264.049 
					101.917,264.049 				"/>
			</g>
			<g>
				
					<rect x="105.723" y="222.683" transform="matrix(-1 -1.224647e-16 1.224647e-16 -1 266.3961 459.0297)" style="fill:#407BFF;" width="54.951" height="13.663"/>
				
					<rect x="105.901" y="222.743" transform="matrix(-1 -1.224647e-16 1.224647e-16 -1 266.7525 459.1485)" style="opacity:0.6;fill:#FFFFFF;enable-background:new    ;" width="54.95" height="13.663"/>
				
					<rect x="105.723" y="222.743" transform="matrix(-1 -1.224647e-16 1.224647e-16 -1 253.6238 459.1485)" style="opacity:0.6;fill:#FFFFFF;enable-background:new    ;" width="42.178" height="13.663"/>
				<polygon style="fill:#407BFF;enable-background:new    ;" points="105.99,234.609 160.675,236.306 160.614,234.921 
					105.96,234.208 				"/>
				<polygon style="fill:#407BFF;enable-background:new    ;" points="160.675,228.289 106.075,225.219 106.075,225.679 
					160.675,229.329 				"/>
				<polygon style="fill:#407BFF;enable-background:new    ;" points="160.675,224.163 106.075,225.413 106.075,225.863 
					160.675,225.203 				"/>
				<polygon style="fill:#407BFF;enable-background:new    ;" points="160.829,230.973 106.219,233.633 106.219,233.233 
					160.829,230.063 				"/>
			</g>
			<g>
				
					<rect x="105.04" y="249.525" transform="matrix(-1 -1.224647e-16 1.224647e-16 -1 265.0297 512.7129)" style="fill:#407BFF;" width="54.951" height="13.663"/>
				
					<rect x="105.218" y="249.584" transform="matrix(-1 -1.224647e-16 1.224647e-16 -1 265.386 512.8317)" style="opacity:0.6;fill:#FFFFFF;enable-background:new    ;" width="54.951" height="13.663"/>
				<rect x="105.16" y="249.584" style="opacity:0.6;fill:#FFFFFF;enable-background:new    ;" width="42.178" height="13.663"/>
				<polygon style="fill:#407BFF;enable-background:new    ;" points="159.754,261.049 105.101,261.762 105.04,263.148 
					159.725,261.451 				"/>
				<polygon style="fill:#407BFF;enable-background:new    ;" points="105.392,249.703 159.992,249.748 159.992,250.198 
					105.392,250.198 				"/>
				<polygon style="fill:#407BFF;enable-background:new    ;" points="105.04,256.171 159.64,252.521 159.64,252.061 
					105.04,255.131 				"/>
				<polygon style="fill:#407BFF;enable-background:new    ;" points="159.992,251.005 105.392,252.255 105.392,252.704 
					159.992,252.044 				"/>
				<polygon style="fill:#407BFF;enable-background:new    ;" points="160.146,257.815 105.536,260.475 105.536,260.075 
					160.146,256.905 				"/>
			</g>
			<g>
				<polygon style="fill:#407BFF;" points="158.089,236.644 103.161,236.92 103.081,250.307 158.089,250.307 				"/>
				
					<rect x="103.139" y="236.644" transform="matrix(-1 -1.224647e-16 1.224647e-16 -1 261.2277 486.9505)" style="opacity:0.6;fill:#FFFFFF;enable-background:new    ;" width="54.951" height="13.663"/>
				<rect x="103.081" y="236.644" style="opacity:0.6;fill:#FFFFFF;enable-background:new    ;" width="42.178" height="13.663"/>
				<polygon style="fill:#407BFF;enable-background:new    ;" points="146.911,236.92 103.161,236.92 103.161,238.31 
					145.971,238.31 				"/>
				<polygon style="fill:#407BFF;enable-background:new    ;" points="157.771,242.517 103.161,243.027 103.161,243.427 
					157.771,243.427 				"/>
				<polygon style="fill:#407BFF;enable-background:new    ;" points="103.161,248.839 157.771,246.179 157.771,246.579 
					103.161,249.749 				"/>
				<polygon style="fill:#407BFF;enable-background:new    ;" points="103.161,243.702 157.771,244.792 157.771,245.182 
					103.161,244.612 				"/>
			</g>
			<g>
				<rect x="117.517" y="206.922" style="fill:#407BFF;" width="54.6" height="6.88"/>
				<rect x="117.517" y="206.922" style="opacity:0.6;fill:#FFFFFF;enable-background:new    ;" width="54.6" height="6.88"/>
				<rect x="117.517" y="206.922" style="opacity:0.6;fill:#FFFFFF;enable-background:new    ;" width="43.51" height="6.88"/>
				<polygon style="fill:#407BFF;enable-background:new    ;" points="172.147,211.802 117.547,212.072 117.547,212.272 
					172.147,212.272 				"/>
				<polygon style="fill:#407BFF;enable-background:new    ;" points="117.547,209.23 172.147,207.84 172.147,208.05 117.547,209.7 
									"/>
				<polygon style="fill:#407BFF;enable-background:new    ;" points="117.369,208.853 171.969,209.413 171.969,209.623 
					117.369,209.323 				"/>
			</g>
			<g>
				<g>
					<rect x="109.875" y="203.893" style="fill:#407BFF;" width="54.6" height="3.316"/>
					<rect x="109.875" y="203.921" style="opacity:0.6;fill:#FFFFFF;enable-background:new    ;" width="54.6" height="3.287"/>
					<rect x="109.875" y="203.714" style="opacity:0.6;fill:#FFFFFF;enable-background:new    ;" width="43.51" height="3.494"/>
				</g>
				<polygon style="fill:#407BFF;enable-background:new    ;" points="109.905,206.418 164.505,205.028 164.505,205.238 
					109.905,206.888 				"/>
				<polygon style="fill:#407BFF;enable-background:new    ;" points="109.905,204.754 164.505,205.314 164.505,205.524 
					109.905,205.224 				"/>
			</g>
			<g>
				<g>
					<rect x="114.963" y="200.507" style="fill:#407BFF;" width="54.6" height="3.316"/>
					<rect x="114.963" y="200.535" style="opacity:0.6;fill:#FFFFFF;enable-background:new    ;" width="54.6" height="3.287"/>
					<rect x="114.963" y="200.328" style="opacity:0.6;fill:#FFFFFF;enable-background:new    ;" width="43.51" height="3.494"/>
				</g>
				<polygon style="fill:#407BFF;enable-background:new    ;" points="114.994,202.005 169.608,202.67 169.6,202.88 
					114.977,202.474 				"/>
				<polygon style="fill:#407BFF;enable-background:new    ;" points="114.992,201.368 169.592,201.928 169.592,202.138 
					114.992,201.838 				"/>
			</g>
			<g>
				<rect x="113.823" y="213.802" style="fill:#407BFF;" width="54.6" height="8.86"/>
				<rect x="113.823" y="213.802" style="opacity:0.6;fill:#FFFFFF;enable-background:new    ;" width="54.6" height="8.86"/>
				<rect x="113.823" y="213.802" style="opacity:0.6;fill:#FFFFFF;enable-background:new    ;" width="42.13" height="8.86"/>
				<polygon style="fill:#407BFF;enable-background:new    ;" points="168.076,216.556 113.476,216.246 113.476,216.006 
					168.076,216.006 				"/>
				<polygon style="fill:#407BFF;enable-background:new    ;" points="113.853,217.842 168.453,219.442 168.453,219.202 
					113.853,217.302 				"/>
				<polygon style="fill:#407BFF;enable-background:new    ;" points="168.453,213.812 116.953,213.812 118.093,214.902 
					168.453,214.902 				"/>
				<polygon style="fill:#407BFF;enable-background:new    ;" points="114.041,221.293 168.641,220.633 168.641,220.403 
					114.041,220.743 				"/>
			</g>
		</g>
	</g>
</g>
<g id="Laptop">
	<g>
		<g>
			<path style="fill:#263238;" d="M157.034,274.557l15.369-64.491l0,0c1.075,0.256,2.513,1.335,2.257,2.409l-14.905,62.545
				L157.034,274.557z"/>
			<path style="fill:#263238;" d="M157.911,277.59H98.287c-1.843,0-3.337-1.494-3.337-3.337v0h66.297v0
				C161.247,276.096,159.754,277.59,157.911,277.59z"/>
		</g>
	</g>
</g>
<g id="Coffee_cup">
	<g>
		<path style="fill:#407BFF;" d="M168.862,262.076v3.957c0,0.667,0.26,1.293,0.73,1.766l3.174,3.173
			c0.29,0.291,0.644,0.49,1.027,0.608c1.295,2.783,4.108,4.717,7.38,4.717h1.188c4.498,0,8.144-3.646,8.144-8.143v-9.332H173.03
			v0.757h-1.67C169.982,259.579,168.862,260.699,168.862,262.076z M170.862,262.076c0-0.274,0.223-0.498,0.497-0.498h1.67v6.575
			c0,0.09,0.01,0.177,0.013,0.266l-2.035-2.035c-0.092-0.093-0.145-0.221-0.145-0.352V262.076z"/>
		<path style="fill:#407BFF;" d="M194.653,277.634h-25.139c-1.635,0-2.96-1.48-2.96-1.48h31.059
			C197.614,276.154,196.288,277.634,194.653,277.634z"/>
	</g>
</g>
<g id="Door">
	<g>
		<g>
			<g>
				<rect x="326.469" y="106.644" style="fill:#407BFF;" width="129.93" height="277.747"/>
				<rect x="326.469" y="106.644" style="opacity:0.5;" width="129.93" height="277.747"/>
			</g>
			<g>
				<polygon style="opacity:0.3;" points="392.837,114.622 392.837,374.103 326.469,384.391 326.469,106.644 				"/>
				<polygon style="opacity:0.4;" points="392.837,114.622 326.469,106.644 392.837,289.053 				"/>
				
					<rect x="190.815" y="243.745" transform="matrix(0.0012 -1 1 0.0012 82.3438 574.2488)" style="opacity:0.4;" width="275.628" height="4.32"/>
			</g>
			<path style="fill:#407BFF;" d="M321.971,101.973v282.417h4.498V106.644h129.399v277.747h4.498V101.973H321.971z"/>
		</g>
		<g>
			<rect x="367.233" y="83.03" style="fill:#407BFF;" width="50.114" height="17.944"/>
			<g>
				<rect x="367.233" y="83.03" style="opacity:0.8;fill:#FFFFFF;" width="50.114" height="17.944"/>
				<g>
					<path style="fill:#407BFF;" d="M380.4,96.308v-8.613h6.34v0.762v0.768h-4.541v1.828h4.213v0.738v0.744h-4.213v2.244h4.74v0.762
						v0.767H380.4z"/>
					<path style="fill:#407BFF;" d="M390.449,91.949l-2.602-4.254h1.062h1.067l1.514,2.778l1.569-2.778h1.038h1.039l-2.625,4.119
						l2.813,4.494h-1.072h-1.077l-1.69-2.966l-1.695,2.966h-1.062h-1.067L390.449,91.949z"/>
					<path style="fill:#407BFF;" d="M396.262,87.695h0.897h0.902v8.613h-0.897h-0.902V87.695z"/>
					<path style="fill:#407BFF;" d="M401.6,89.224h-2.602v-0.762v-0.768H406v0.762v0.768h-2.602v7.084h-0.896H401.6V89.224z"/>
				</g>
			</g>
		</g>
	</g>
</g>
<g id="Character_1_">
	<g>
		<path style="fill:#FF8B7B;" d="M363.366,171.823c-3.644,3.568-6.567,8.005-1.48,13.403c0,0,2.916,8.284-8.058,1.053
			c-9.955-6.559-8.599-12.029-8.599-12.029c5.984-1.183,11.061-11.924,13.363-18.096L363.366,171.823z"/>
		<path style="fill:#263238;" d="M382.165,160.985c0.41,0.214,0.508,0.919,0.204,1.551c-0.304,0.632-0.877,0.973-1.292,0.767
			c-0.415-0.206-0.502-0.893-0.201-1.538C381.192,161.097,381.755,160.771,382.165,160.985z"/>
		<path style="fill:#A02724;" d="M377.533,168.219c0,0,1.669,1.459,3.283,0.972c-0.459-2.314-0.606-4.679-0.436-7.032
			L377.533,168.219z"/>
		<g>
			<path style="fill:#FF8B7B;" d="M364.308,143.663c4.885-4.05,12.128-3.373,16.178,1.512c6.112,7.018,1.686,19.244-3.289,25.465
				c-1.403,1.82-3.326,3.172-5.513,3.875c-5.967,1.919-12.36-1.361-14.279-7.328c-2.022-6.042,0.271-10.614,3.487-18.736
				C361.596,146.586,362.773,144.936,364.308,143.663z"/>
			<g>
				<g>
					<path style="fill:#263238;" d="M364.122,164.654c-3.025-0.223-5.808-1.737-7.638-4.156c-1.547-1.986,0.152-13.334,4.697-17.826
						c4.39-4.325,8.04-4.696,14.228-2.058c6.187,2.638,10.051,9.006,8.897,11.798c-1.154,2.792-7.486,8.614-9.341,8.392
						C372.822,157.336,366.619,164.737,364.122,164.654z"/>
					<path style="opacity:0.2;fill:#FFFFFF;" d="M364.122,164.654c-3.025-0.223-5.808-1.737-7.638-4.156
						c-1.547-1.986,0.152-13.334,4.697-17.826c4.39-4.325,8.04-4.696,14.228-2.058c6.187,2.638,10.051,9.006,8.897,11.798
						c-1.154,2.792-7.486,8.614-9.341,8.392C372.822,157.336,366.619,164.737,364.122,164.654z"/>
				</g>
				<path style="fill:#263238;" d="M363.705,145.359c-5.587-1.433-3.209-9.017,1.955-10.268c4.181-1.022,11.881,2.545,15.338,5.486
					c3.458,2.942,3.78-0.005,3.78-0.005c2.898,1.331,4.749,4.234,4.732,7.423c-0.049,5.465-5.45,8.066-8.043,6.133
					C381.467,154.128,369.293,146.792,363.705,145.359z"/>
				<path style="fill:#FF8B7B;" d="M377.296,156.978c1.422,2.432-0.676,5.906-2.576,7.543c-2.107,1.816-4.938,1.557-5.282-1.333
					c-0.247-2.208,0.358-4.427,1.693-6.203C372.788,154.829,375.874,154.546,377.296,156.978z"/>
			</g>
			<path style="fill:#263238;" d="M380.872,157.795c0.98-0.452,2.115-0.419,3.068,0.088c0.194,0.122,0.451,0.066,0.577-0.125
				c0.116-0.194,0.058-0.445-0.131-0.569c-1.183-0.657-2.607-0.716-3.841-0.159c-0.001,0-0.001,0.001-0.002,0.001
				c-0.209,0.092-0.303,0.336-0.211,0.544c0.035,0.09,0.101,0.166,0.186,0.213C380.63,157.839,380.758,157.842,380.872,157.795z"/>
		</g>
		<g>
			<g>
				<path style="fill:#263238;" d="M369.786,143.77l-0.443-0.229c1.121-2.166,1.122-4.857,0.003-7.023
					c-1.12-2.166-3.316-3.721-5.731-4.059l0.068-0.495c2.574,0.359,4.914,2.017,6.107,4.324
					C370.982,138.596,370.981,141.463,369.786,143.77z"/>
			</g>
			<g>
				<path style="fill:#263238;" d="M372.41,145.295l-0.203-0.457c2.228-0.99,3.91-3.09,4.39-5.482
					c0.478-2.392-0.264-4.978-1.939-6.749l0.363-0.344c1.784,1.888,2.575,4.643,2.065,7.192
					C376.576,142.002,374.784,144.24,372.41,145.295z"/>
			</g>
			<g>
				<path style="fill:#263238;" d="M363.138,139.616c-1.502-1.012-3.603-1.15-5.227-0.341l-0.223-0.447
					c1.807-0.901,4.056-0.754,5.728,0.374L363.138,139.616z"/>
			</g>
			<g>
				<path style="fill:#263238;" d="M386.926,147.731l-0.256-0.43c1.971-1.169,4.222-1.835,6.511-1.926l0.02,0.5
					C390.994,145.963,388.824,146.605,386.926,147.731z"/>
			</g>
			<g>
				<path style="fill:#263238;" d="M383.726,143.947c-0.415,0-0.821-0.137-1.146-0.395c-0.402-0.32-0.679-0.745-0.946-1.156
					l-0.058-0.089c-0.481-0.739-4.835-7.234-9.556-7.701c-1.623-0.158-3.113,0.441-4.429,1.788l-0.357-0.35
					c1.426-1.461,3.057-2.109,4.835-1.936c4.953,0.489,9.431,7.165,9.926,7.925l0.059,0.09c0.256,0.395,0.499,0.768,0.837,1.037
					c0.332,0.263,0.781,0.353,1.204,0.237c0.413-0.114,0.7-0.317,0.853-0.605c0.26-0.489,0.104-1.14-0.014-1.484
					c-0.207-0.612-0.729-1.095-1.189-1.523l0.34-0.367c0.479,0.444,1.075,0.997,1.323,1.729c0.143,0.421,0.329,1.225-0.018,1.879
					c-0.22,0.414-0.611,0.701-1.162,0.853C384.061,143.925,383.893,143.947,383.726,143.947z"/>
			</g>
			<path style="fill:#263238;" d="M381.501,154.196c-0.084-0.099-0.076-0.247,0.019-0.336c0.097-0.081,0.239-0.075,0.328,0.014
				c1.087,1.005,2.645,1.32,4.037,0.817c2.403-0.713,4.191-2.732,4.609-5.203c0.026-0.129,0.151-0.212,0.28-0.186
				c0.129,0.026,0.212,0.151,0.186,0.28c-0.466,2.641-2.38,4.793-4.948,5.564c-1.301,0.423-2.721,0.265-3.897-0.432
				C381.891,154.566,381.684,154.393,381.501,154.196z"/>
		</g>
		<g id="_x3C_Group_x3E_">
			<path style="fill:#FF8B7B;" d="M359.175,243.61c4.096,3.261,9.594,4.992,12.716,9.196c1.59,2.141,8.143,5.56,10.688,6.789
				c0.622,0.301,1.337,0.312,1.97,0.033c1.491-0.658,4.328-1.905,5.528-2.4c0.28-0.115,0.372-0.461,0.193-0.705l-1.974-2.685
				l-5.15,0.357c0.484-2.485,1.31-5.542-1.51-5.73c-1.943-0.13-3.779-0.057-5.924-1.401c-12.731-7.982-22.148-27.211-25.003-41.963
				c-0.695-3.592-1.212-7.352-3.213-10.416c-2-3.064-6.038-5.181-9.38-3.693C328.519,195.266,350.004,236.31,359.175,243.61z"/>
			<g>
				<g>
					<path style="fill:#407BFF;" d="M312.863,311.594c-8.96,7.262-50.937,29.758-50.937,29.758l5.888,11.069
						c0,0,35.499-9.817,53.547-22.571L312.863,311.594z"/>
					<path style="fill:#407BFF;" d="M321.054,329.904c2.285-3.603,4.158-7.546,5.702-11.575c1.762-4.605,3.079-9.317,4.077-13.733
						c0.151-0.656,0.292-1.335,0.435-2.022c0.054-0.265,0.105-0.521,0.161-0.794c2.08-10.389,2.331-18.492,2.331-18.492
						l1.307-10.884l2.81-23.512c-11.82-4.936-21.534-9.844-21.534-9.844s-7.041,7.432-7.46,17.829
						c-0.579,14.378,1.867,51.112-2.635,59.379L321.054,329.904z"/>
					<path style="fill:#407BFF;" d="M306.247,316.255l14.807,13.649L306.247,316.255z"/>
				</g>
				<g>
					<path style="fill:#FF8B7B;" d="M263.091,340.509l-16.955,7.311c0,0-0.197,7.672,2.876,7.091
						c4.182-0.792,17.734-3.441,17.734-3.441S268.829,353.714,263.091,340.509z"/>
					<g>
						<path style="fill:#407BFF;" d="M244.6,359.902c-0.201-0.869-0.323-1.755-0.364-2.646c-0.01-0.087,0.042-0.17,0.125-0.198
							c0.078-0.032,0.167-0.011,0.222,0.052c0.291,0.33,2.819,3.222,2.509,4.349c-0.057,0.216-0.225,0.386-0.44,0.447
							c-0.346,0.126-0.731,0.076-1.034-0.133C245.078,361.281,244.719,360.622,244.6,359.902z M244.677,357.828
							c0.163,1.886,0.589,3.212,1.138,3.619c0.202,0.14,0.461,0.171,0.69,0.082c0.084-0.019,0.15-0.083,0.172-0.166
							C246.873,360.731,245.673,359.031,244.677,357.828z"/>
						<path style="fill:#407BFF;" d="M244.238,357.292c-0.007-0.041-0.005-0.084,0.008-0.124c0.029-0.065,0.088-0.112,0.157-0.124
							c0.145-0.046,3.586-0.501,4.068,1.332l0.051,0.162c0.084,0.535-0.146,0.757-0.35,0.85c-0.89,0.383-3.168-1.147-3.876-2.029
							L244.238,357.292z M248.085,358.488c-0.299-1.188-2.358-1.13-3.234-1.089c0.872,0.868,2.605,1.857,3.14,1.624
							c0,0,0.179-0.056,0.12-0.421L248.085,358.488z"/>
					</g>
					<polygon style="opacity:0.2;" points="256.053,343.597 259.317,352.96 266.445,351.352 260.807,341.548 					"/>
					<path style="fill:#263238;" d="M248.337,347.176c-1.372-1.306-0.91-0.44-3.305-2.318c-1.159-0.908-4.663-1.745-5.902-1.038
						c-1.923,1.097-2.512,3.363-4.452,6.694c-2.532,4.347-4.528,11.298-5.248,15.026c-0.276,1.43,0.593,2.953,2.039,3.301
						c0.339,0.082,0.633,0.138,0.87,0.177c0.387,0.064,0.77-0.091,1.003-0.394c2.781-3.598,3.353-3.968,6.049-7.248
						c2.699-3.283,9.176-5.467,9.176-5.467L248.337,347.176z"/>
					<g>
						<g>
							<path style="fill:#407BFF;" d="M268.803,353.82c0.036,0.051-4.961,1.209-4.961,1.209l-5.506-14.386l4.022-2.043
								L268.803,353.82z"/>
						</g>
						<g style="opacity:0.7;">
							<path style="fill:#FFFFFF;" d="M268.803,353.82c0.036,0.051-4.961,1.209-4.961,1.209l-5.506-14.386l4.022-2.043
								L268.803,353.82z"/>
						</g>
					</g>
				</g>
			</g>
			<g>
				<path style="fill:#FF8B7B;" d="M408.496,347.948l11.469,18.514c0,0,8.01-2.461,6.82-5.651c-0.734-1.969-3.483-8.678-5.466-14.01
					c-0.754-2.028-2.316-3.409-3.657-3.442C415.429,343.306,412.974,345.016,408.496,347.948z"/>
				<g>
					<path style="fill:#407BFF;" d="M434.009,361.879c-0.805,0.385-1.643,0.697-2.503,0.931c-0.083,0.029-0.175-0.004-0.221-0.079
						c-0.048-0.069-0.047-0.16,0.002-0.228c0.258-0.356,2.531-3.453,3.698-3.396c0.224,0.009,0.426,0.135,0.532,0.332
						c0.198,0.31,0.234,0.697,0.095,1.038C435.251,361.112,434.686,361.606,434.009,361.879z M431.968,362.255
						c1.806-0.569,3.007-1.274,3.285-1.899c0.093-0.228,0.067-0.487-0.07-0.692c-0.037-0.078-0.114-0.128-0.2-0.132
						C434.324,359.48,432.925,361.021,431.968,362.255z"/>
					<path style="fill:#407BFF;" d="M431.523,363.061c-0.039,0.016-0.081,0.023-0.123,0.019c-0.07-0.014-0.128-0.061-0.156-0.127
						c-0.076-0.131-1.269-3.391,0.414-4.261l0.147-0.085c0.504-0.199,0.771-0.023,0.906,0.157c0.568,0.786-0.43,3.342-1.136,4.225
						L431.523,363.061z M431.853,359.045c-1.095,0.55-0.59,2.548-0.359,3.394c0.657-1.04,1.246-2.947,0.901-3.418
						c0,0-0.094-0.162-0.438-0.026L431.853,359.045z"/>
				</g>
				<path style="fill:#263238;" d="M418.755,366.034c0.079,1.52,1.394,3.558,1.755,5.977c0.174,1.17,1.119,3.021,2.233,3.293
					c1.728,0.422,3.399,0.118,6.371-0.754c3.878-1.137,13.684-6.684,16.164-8.46c0.951-0.682,1.285-2.051,0.634-3.052
					c-0.153-0.235-0.293-0.43-0.41-0.584c-0.191-0.251-0.5-0.372-0.803-0.324c-3.61,0.563-4.148,0.464-7.533,0.888
					c-3.389,0.425-9.831-2.462-9.831-2.462L418.755,366.034z"/>
				<polygon style="opacity:0.2;" points="412.846,355.047 415.489,359.313 423.925,353.545 422.128,348.701 				"/>
				<g>
					<g>
						<path style="fill:#407BFF;" d="M339.383,243.499l-27.303,13.767c0,0,1.851,7.1,4.47,11.448
							c9.583,15.904,20.343,8.359,28.605,14.229c18.317,13.016,31.786,19.651,35.628,24.103
							c3.018,3.497,33.457,50.175,33.457,50.175l9.013-6.01c0,0-13.91-41.706-24.865-56.101
							C387.434,280.714,339.383,243.499,339.383,243.499z"/>
					</g>
					<path style="opacity:0.2;" d="M330.832,304.679c1.504-6.775,2.493-13.665,2.955-20.59c0.253-3.799,0.312-7.788-1.372-11.203
						c-1.336-2.71-3.658-4.807-6.117-6.564c-2.69-1.921-13.898-8.689-11.53-2.766C316.748,268.504,330.452,306.392,330.832,304.679z
						"/>
					<g>
						<path style="fill:#407BFF;" d="M339.383,243.499l-27.303,13.767c0,0,1.851,7.1,4.47,11.448
							c9.583,15.904,20.343,8.359,28.605,14.229c18.317,13.016,31.786,19.651,35.628,24.103
							c3.018,3.497,33.457,50.175,33.457,50.175l9.013-6.01c0,0-13.91-41.706-24.865-56.101
							C387.434,280.714,339.383,243.499,339.383,243.499z"/>
					</g>
				</g>
				<g>
					<path style="fill:#407BFF;" d="M423.067,345.484c0.042-0.046,2.01,4.479,2.01,4.479l-12.59,8.608l-2.87-3.48L423.067,345.484z"
						/>
					<path style="opacity:0.7;fill:#FFFFFF;" d="M423.067,345.484c0.042-0.046,2.01,4.479,2.01,4.479l-12.59,8.608l-2.87-3.48
						L423.067,345.484z"/>
				</g>
			</g>
			<g>
				<path style="fill:#407BFF;" d="M379.837,253.022c-0.214,2.84,1.915,5.316,4.756,5.53c2.84,0.214,5.316-1.915,5.53-4.756
					c0.214-2.84-1.915-5.316-4.756-5.53C382.527,248.052,380.051,250.182,379.837,253.022z"/>
				<path style="opacity:0.7;fill:#FFFFFF;" d="M385.37,248.27c-2.84-0.22-5.32,1.91-5.53,4.75c-0.22,2.84,1.91,5.32,4.75,5.53
					c2.84,0.22,5.32-1.91,5.53-4.75C390.34,250.96,388.21,248.48,385.37,248.27z M385.14,255.42c-0.99,0-1.78-0.8-1.78-1.79
					c0-0.98,0.79-1.78,1.78-1.78c0.98,0,1.78,0.8,1.78,1.78C386.92,254.62,386.12,255.42,385.14,255.42z"/>
			</g>
			<g>
				<g>
					<g>
						<path style="fill:#407BFF;" d="M355.548,224.54c-1.698,6.937-2.227,15.314-2.385,20.71l1.576,6.651l-2.084,0.265l-0.319-1.492
							l-0.706-3.253l-0.701,3.02l-0.431,1.882c0,0-5.434,0.293-11.842-0.308c-10.239-0.951-32.942-5.334-32.942-5.334
							s3.287-12.671,6.002-15.173c1.497-6.572,3.492-15.547,5.753-26.141c2.494-11.682,6.159-19.789,9.146-24.924
							c2.694-4.63,7.626-7.484,12.982-7.554c3.354-0.044,7.348,0.095,11.086,0.712c9.082,1.491,18.311,6.64,19.374,8.983
							C372.16,187.189,358.293,213.294,355.548,224.54z"/>
						<polygon style="fill:#407BFF;" points="352.336,250.674 350.93,250.441 351.63,247.421 						"/>
					</g>
				</g>
				<path style="opacity:0.8;fill:#FFFFFF;" d="M355.53,224.555c-1.698,6.937-2.227,15.314-2.385,20.71l1.576,6.651l-2.084,0.265
					l-0.319-1.492l-0.706-3.253l-0.701,3.02l-0.431,1.882c0,0-5.434,0.293-11.842-0.308c-10.239-0.951-32.942-5.334-32.942-5.334
					s3.287-12.671,6.002-15.174c1.497-6.572,3.492-15.547,5.753-26.141c2.317-10.852,5.644-18.619,8.499-23.783
					c2.985-5.399,8.701-8.71,14.87-8.702c3.074,0.004,6.558,0.177,9.845,0.719c9.082,1.491,18.311,6.64,19.374,8.983
					C372.142,187.204,358.275,213.309,355.53,224.555z"/>
			</g>
			<path style="fill:#407BFF;" d="M341.796,172.891l3.95-2.522c0.931-0.594,2.041-0.83,3.134-0.67
				c2.547,0.372,7.645,0.848,11.805,2.916c3.783,1.88,2.643,5.129,2.643,5.129S356.111,173.985,341.796,172.891z"/>
		</g>
		<g>
			<g>
				<g>
					<path style="fill:#263238;" d="M359.968,206.416l-3.999,0.093l-0.034-1.454c-0.015-0.633-0.247-1.215-0.655-1.639
						c-0.362-0.377-0.824-0.579-1.3-0.568l-7.452,0.174c-0.47,0.016-0.927,0.234-1.273,0.628c-0.387,0.442-0.592,1.035-0.577,1.668
						l0.034,1.454l-3.999,0.093l-0.034-1.454c-0.038-1.637,0.518-3.199,1.567-4.396c1.091-1.246,2.578-1.949,4.188-1.991
						l7.452-0.174c1.609-0.038,3.128,0.599,4.276,1.793c1.104,1.148,1.733,2.682,1.771,4.319L359.968,206.416z"/>
				</g>
				<g style="opacity:0.2;">
					<path style="fill:#FFFFFF;" d="M359.968,206.416l-3.999,0.093l-0.034-1.454c-0.015-0.633-0.247-1.215-0.655-1.639
						c-0.362-0.377-0.824-0.579-1.3-0.568l-7.452,0.174c-0.47,0.016-0.927,0.234-1.273,0.628c-0.387,0.442-0.592,1.035-0.577,1.668
						l0.034,1.454l-3.999,0.093l-0.034-1.454c-0.038-1.637,0.518-3.199,1.567-4.396c1.091-1.246,2.578-1.949,4.188-1.991
						l7.452-0.174c1.609-0.038,3.128,0.599,4.276,1.793c1.104,1.148,1.733,2.682,1.771,4.319L359.968,206.416z"/>
				</g>
				<polygon style="fill:#263238;" points="324.298,207.249 322.852,242.37 330.325,242.195 326.641,207.194 				"/>
				<polygon style="fill:#263238;" points="377.8,241.087 374.725,241.158 370.328,241.262 325.114,242.313 324.295,207.246 
					371.772,206.142 373.906,206.091 374.116,206.083 				"/>
				<polygon style="opacity:0.2;fill:#FFFFFF;" points="377.8,241.087 374.725,241.158 370.328,241.262 325.114,242.313 
					324.295,207.246 371.772,206.142 373.906,206.091 374.116,206.083 				"/>
				<polygon style="opacity:0.2;fill:#FFFFFF;" points="324.298,207.249 322.852,242.37 330.325,242.195 326.641,207.194 				"/>
			</g>
			<g>
				<line style="fill:none;" x1="325.991" y1="207.209" x2="326.588" y2="242.283"/>
				
					<rect x="325.789" y="207.207" transform="matrix(0.9999 -0.0166 0.0166 0.9999 -3.6842 5.445)" style="fill:#263238;" width="1" height="35.078"/>
			</g>
		</g>
		<g>
			<g>
				<path style="fill:#FF8B7B;" d="M357.11,183.073c-2.015,3.898-8.048,20.135-13.557,35.03c-0.977,2.641,0.548,5.546,3.277,6.241
					l6.111,1.013c6.472-14.364,11.631-26.478,17.346-38.733C365.596,183.982,360.264,176.972,357.11,183.073z"/>
				<path style="fill:#FF8B7B;" d="M352.762,225.03c2.481,14.703,3.422,28.067,5.386,40.712l-6.479,0.271
					c-0.251-4.767-3.741-13.128-5.625-21.46c-0.681-3.01-2.176-5.9-3.262-10.434c-0.808-3.372,1.602-7.94,4.869-9.1L352.762,225.03z
					"/>
				<g>
					<path style="fill:#FF8B7B;" d="M355.888,264.476c-6.19-0.492-6.687,8.048-6.687,8.048l7.573,4.621l1.348-11.379
						L355.888,264.476z"/>
					<polygon style="fill:#FF8B7B;" points="356.775,277.145 349.202,272.524 345.476,278.428 350.128,282.525 					"/>
				</g>
				<path style="fill:#FF8B7B;" d="M354.723,221.376l-9.267-8.644c0,0-7.129,14.97-1.248,23.792c5.027,7.54,8.033-6.815,8.033-6.815
					l1.175-4.591L354.723,221.376z"/>
			</g>
			<path style="opacity:0.5;fill:#263238;" d="M353.428,190.314c-0.038-0.793-0.13-1.664-0.704-2.212
				c-0.498-0.475-1.467-0.425-1.792,0.109l0.259-0.703c-2.45,4.526-4.899,9.051-7.349,13.577c-0.531,0.981-1.067,2.177-0.536,3.158
				c0.329,0.609-0.083,2.066,0.407,2.555c1.468,1.463-3.442,4.686-2.384,17.787C349.316,212.523,353.876,199.762,353.428,190.314z"
				/>
			<g>
				<path style="fill:#407BFF;" d="M362.373,179.696c-3.129,0.49-5.895,2.296-8.337,4.313c-1.016,0.839-2.014,1.745-2.66,2.894
					c-0.839,1.491-1.012,3.253-1.169,4.956c-0.273,2.978-2.265,10.555-2.538,13.533c4.398,2.64,9.275,4.477,14.321,5.395
					c0.629,0.115,1.332,0.201,1.863-0.155c0.969-0.65,4.953-13.875,6.463-16.882C373.534,187.344,370.75,178.384,362.373,179.696z"
					/>
				<path style="opacity:0.8;fill:#FFFFFF;" d="M362.373,179.696c-3.129,0.49-5.895,2.296-8.337,4.313
					c-1.016,0.839-2.014,1.745-2.66,2.894c-0.839,1.491-1.012,3.253-1.169,4.956c-0.273,2.978-2.265,10.555-2.538,13.533
					c4.398,2.64,9.275,4.477,14.321,5.395c0.629,0.115,1.332,0.201,1.863-0.155c0.969-0.65,4.953-13.875,6.463-16.882
					C373.534,187.344,370.75,178.384,362.373,179.696z"/>
			</g>
		</g>
	</g>
</g>
</svg>
